Coordinates
version=1
nRows=12
nColumns=42
inDegrees=yes

Units are S.I. units (second, meters, Newtons, ...)
If the header above contains a line with 'inDegrees', this indicates whether rotational values are in degrees (yes) or radians (no).

endheader
time	pelvis_tilt	pelvis_list	pelvis_rotation	pelvis_tx	pelvis_ty	pelvis_tz	hip_flexion_r	hip_adduction_r	hip_rotation_r	knee_angle_r	knee_adduction_r	knee_angle_r_beta	ankle_angle_r	subtalar_angle_r	mtp_angle_r	hip_flexion_l	hip_adduction_l	hip_rotation_l	knee_angle_l	knee_adduction_l	knee_angle_l_beta	ankle_angle_l	subtalar_angle_l	mtp_angle_l	lumbar_extension	lumbar_bending	lumbar_rotation	arm_flex_r	arm_add_r	arm_rot_r	elbow_flex_r	pro_sup_r	wrist_flex_r	wrist_dev_r	arm_flex_l	arm_add_l	arm_rot_l	elbow_flex_l	pro_sup_l	wrist_flex_l	wrist_dev_l
      2.67000000	     14.62987823	     -3.18789232	      0.84810875	      0.78388281	      0.91288806	     -0.31259581	    -15.79439036	      2.12873816	    -39.28581271	     27.73720183	     -6.00078277	      0.48410550	     27.76548209	     37.45466659	     -7.50055868	     21.52998845	     -3.15322206	     -6.82426306	     30.14429190	     -8.80527002	      0.52611714	     13.44269335	      4.75683218	     -7.50055868	    -34.10226396	      0.72219449	      2.96415143	     28.79501530	    -24.68203656	      5.98462298	     63.58624875	     90.00000001	      0.00000000	      0.00000000	     -6.74251741	     -3.90394311	    -17.95865843	     29.94012332	     90.00000001	      0.00000000	      0.00000000
      2.68000000	     14.66825557	     -3.32162057	      0.62088238	      0.79312177	      0.91187868	     -0.31340858	    -16.40844723	      2.01497113	    -39.26367382	     27.97397166	     -6.09232507	      0.48823791	     27.82219920	     37.57716568	     -7.50055071	     21.27785037	     -3.40238063	     -7.42814859	     29.44583521	     -8.87569081	      0.51392678	     13.51958299	      4.93556696	     -7.50055071	    -34.07293202	      0.70222370	      3.07660408	     29.37605088	    -24.85222032	      5.86471079	     63.83741217	     90.00000001	      0.00000000	      0.00000000	     -7.14924195	     -3.73438925	    -17.92212895	     29.75216758	     90.00000001	      0.00000000	      0.00000000
      2.69000000	     14.65750959	     -3.49471331	      0.39398297	      0.80243737	      0.91086442	     -0.31425824	    -16.92688370	      1.94806275	    -39.22694761	     28.25189850	     -6.25790428	      0.49308865	     27.85417368	     37.67885504	     -7.50054520	     21.03989596	     -3.69931621	     -8.06029156	     29.01355238	     -8.93689993	      0.50638202	     13.67690114	      5.06318910	     -7.50054520	    -33.98862176	      0.72579419	      3.21490898	     29.85533513	    -25.03712290	      5.78026048	     64.12060884	     90.00000001	      0.00000000	      0.00000000	     -7.50505508	     -3.57509615	    -17.87991746	     29.58737189	     90.00000001	      0.00000000	      0.00000000
      2.70000000	     14.67784173	     -3.60027327	      0.15558940	      0.81186591	      0.90997882	     -0.31522148	    -17.46299388	      1.76964068	    -39.18217520	     28.58669700	     -6.42492977	      0.49893198	     27.84298683	     37.79922833	     -7.50053982	     20.69396267	     -3.89262444	     -8.78583455	     28.76999909	     -9.05811129	      0.50213121	     13.87278176	      5.23408456	     -7.50053982	    -33.93151179	      0.67995319	      3.36238826	     30.21067306	    -25.20932818	      5.69374217	     64.38917459	     90.00000001	      0.00000000	      0.00000000	     -7.80357902	     -3.48180934	    -17.82670471	     29.43776658	     90.00000001	      0.00000000	      0.00000000
      2.71000000	     14.71904296	     -3.69451849	     -0.07364127	      0.82155729	      0.90913444	     -0.31625440	    -18.03685002	      1.57084687	    -39.13026096	     28.91079360	     -6.59427966	      0.50458854	     27.79431849	     37.95027716	     -7.50050534	     20.39459600	     -4.14416303	    -10.35850799	     28.80136261	     -9.50876862	      0.50267861	     14.54743537	      7.32718582	     -7.50050534	    -33.87462050	      0.63212990	      3.55993087	     30.30027622	    -25.44855907	      5.49987871	     64.90885061	     90.00000001	      0.00000000	      0.00000000	     -8.08397213	     -3.48884328	    -17.40765526	     29.31532076	     90.00000001	      0.00000000	      0.00000000
      2.72000000	     14.67027434	     -3.77577410	     -0.27096358	      0.83116357	      0.90834925	     -0.31736517	    -18.45432717	      1.38534747	    -39.05523012	     29.25721882	     -6.83805238	      0.51063480	     27.67423873	     37.99573078	     -7.50050195	     20.00032479	     -4.24534996	    -10.77940803	     28.84827270	     -9.55452441	      0.50349734	     14.65426646	      7.23947004	     -7.50050195	    -33.72760592	      0.57895183	      3.64355637	     30.47652345	    -25.51649531	      5.39402499	     64.95671780	     90.00000001	      0.00000000	      0.00000000	     -8.29870550	     -3.48462069	    -17.38825045	     29.24458474	     90.00000001	      0.00000000	      0.00000000
      2.73000000	     14.67504358	     -3.77115553	     -0.46967934	      0.84085593	      0.90772765	     -0.31863075	    -18.88719743	      1.07013980	    -38.96931652	     29.74193145	     -7.11356102	      0.51909463	     27.44043346	     38.07945719	     -7.50049779	     19.53349869	     -4.25680523	    -11.41167235	     29.01537918	     -9.64543583	      0.50641390	     14.77353773	      7.24451366	     -7.50049779	    -33.66315295	      0.44799007	      3.72711589	     30.55753262	    -25.56257229	      5.20655401	     65.00433096	     90.00000001	      0.00000000	      0.00000000	     -8.47830503	     -3.51660293	    -17.34946382	     29.19643424	     90.00000001	      0.00000000	      0.00000000
      2.74000000	     14.63083215	     -3.71036868	     -0.63442285	      0.85070615	      0.90713503	     -0.32002032	    -19.26602197	      0.68518441	    -38.87613599	     30.23408173	     -7.34735956	      0.52768427	     27.03224597	     38.17378150	     -7.50049007	     19.14074640	     -4.15934521	    -12.19388212	     29.29366928	     -9.91635262	      0.51127098	     14.89756278	      7.66872670	     -7.50049007	    -33.53295955	      0.28376504	      3.78483748	     30.45366157	    -25.53222274	      4.81842592	     65.04676739	     90.00000001	      0.00000000	      0.00000000	     -8.63101158	     -3.59697633	    -17.24632804	     29.21452759	     90.00000001	      0.00000000	      0.00000000
      2.75000000	     14.58171907	     -3.65208478	     -0.76087157	      0.86063048	      0.90664179	     -0.32143769	    -19.63410507	      0.36013087	    -38.74860246	     30.66128557	     -7.65083362	      0.53514039	     26.52307479	     38.22949549	     -7.50047885	     18.78719146	     -4.09369234	    -12.91965408	     29.71423119	    -10.14341017	      0.51861117	     15.05017447	      8.55454565	     -7.50047885	    -33.40315850	      0.10988280	      3.82367488	     30.24804771	    -25.39745081	      4.25584929	     65.06274479	     90.00000001	      0.00000000	      0.00000000	     -8.73859729	     -3.75582801	    -17.07767991	     29.31356393	     90.00000001	      0.00000000	      0.00000000
      2.76000000	     14.48790731	     -3.61117166	     -0.77733308	      0.87057061	      0.90627839	     -0.32299360	    -19.97443093	      0.21091821	    -38.49752964	     30.90086217	     -8.06083912	      0.53932179	     26.40209025	     38.23965511	     -7.50047795	     18.42065123	     -3.92721501	    -12.85470384	     30.09306771	    -10.18742116	      0.52522311	     14.98649968	      8.68800646	     -7.50047795	    -33.24180588	      0.01972606	      3.74817974	     30.00055022	    -25.35220761	      4.22327966	     64.98551781	     90.00000001	      0.00000000	      0.00000000	     -8.79418349	     -3.90111921	    -17.09028214	     29.30512806	     90.00000001	      0.00000000	      0.00000000
      2.77000000	     14.45515433	     -3.46102487	     -0.77942430	      0.88057584	      0.90606967	     -0.32470595	    -20.37546664	     -0.13500217	    -38.29924549	     31.27732667	     -8.34473939	      0.54589233	     26.07260017	     38.25665465	     -7.50047643	     18.08074259	     -3.65427072	    -12.87367798	     30.72272736	    -10.21361522	      0.53621275	     14.89531079	      8.89848128	     -7.50047643	    -33.16686005	     -0.20104550	      3.62455895	     29.64005562	    -25.27803987	      4.09105218	     64.85445346	     90.00000001	      0.00000000	      0.00000000	     -8.74969057	     -4.13859914	    -17.09781586	     29.36128440	     90.00000001	      0.00000000	      0.00000000
      2.78000000	     14.42246824	     -3.23461447	     -0.70820301	      0.89067744	      0.90596812	     -0.32673417	    -20.79784018	     -0.64361987	    -38.15009898	     31.72510999	     -8.44501845	      0.55370762	     25.44389568	     38.27897556	     -7.50047414	     17.83260133	     -3.27859821	    -12.95350102	     31.51112731	    -10.29614408	      0.54997292	     14.78702353	      9.18430448	     -7.50047414	    -33.09911874	     -0.43765565	      3.47133340	     29.18520211	    -25.15373642	      3.78832076	     64.67498164	     90.00000001	      0.00000000	      0.00000000	     -8.67369033	     -4.40796036	    -17.09455437	     29.48020040	     90.00000001	      0.00000000	      0.00000000
